<svg width="14" height="18" viewBox="0 0 14 18" fill="none" xmlns="http://www.w3.org/2000/svg">
<path d="M12.0322 10.7977C13.119 10.7977 14 11.704 14 12.822V13.6488C14 14.1649 13.8432 14.6681 13.5515 15.088C12.1988 17.0353 9.98995 18 6.99712 18C4.00368 18 1.79602 17.0349 0.446586 15.0866C0.156109 14.6672 0 14.1651 0 13.6502V12.822C0 11.704 0.881026 10.7977 1.96783 10.7977H12.0322ZM6.99712 0C9.41343 0 11.3722 2.01508 11.3722 4.5008C11.3722 6.98652 9.41343 9.0016 6.99712 9.0016C4.5808 9.0016 2.62198 6.98652 2.62198 4.5008C2.62198 2.01508 4.5808 0 6.99712 0Z" fill="white"/>
</svg>
